<?xml version="1.0" standalone="no"?><!DOCTYPE svg PUBLIC "-//W3C//DTD SVG 1.1//EN" "http://www.w3.org/Graphics/SVG/1.1/DTD/svg11.dtd"><svg width="100%" height="100%" viewBox="0 0 374 120" version="1.1" xmlns="http://www.w3.org/2000/svg" xmlns:xlink="http://www.w3.org/1999/xlink" xml:space="preserve" style="fill-rule:evenodd;clip-rule:evenodd;stroke-linejoin:round;stroke-miterlimit:1.41421;"><path d="M14.312,104.827l0,-88.987l34.216,0c7.353,0 13.828,1.17 19.427,3.509c5.598,2.34 10.277,5.515 14.037,9.526c3.76,4.01 6.601,8.71 8.523,14.1c1.921,5.389 2.882,11.133 2.882,17.233c0,6.768 -1.065,12.888 -3.196,18.361c-2.13,5.473 -5.159,10.152 -9.086,14.038c-3.927,3.885 -8.648,6.893 -14.163,9.024c-5.515,2.13 -11.656,3.196 -18.424,3.196l-34.216,0ZM68.581,60.208c0,-3.426 -0.459,-6.559 -1.378,-9.4c-0.919,-2.841 -2.235,-5.264 -3.948,-7.269c-1.713,-2.006 -3.823,-3.572 -6.33,-4.7c-2.506,-1.128 -5.305,-1.692 -8.397,-1.692l-9.776,0l0,46.373l9.776,0c3.175,0 6.016,-0.585 8.523,-1.755c2.506,-1.169 4.616,-2.799 6.329,-4.888c1.713,-2.089 3.008,-4.553 3.885,-7.394c0.878,-2.841 1.316,-5.933 1.316,-9.275Z" style="fill:#fff;fill-rule:nonzero;"/><path d="M179.752,82.016c0,4.011 -0.836,7.457 -2.507,10.34c-1.671,2.883 -3.969,5.243 -6.893,7.081c-2.924,1.839 -6.329,3.196 -10.215,4.074c-3.885,0.877 -8,1.316 -12.345,1.316l-43.741,0l0,-88.987l51.637,0c3.092,0 5.891,0.668 8.397,2.005c2.507,1.337 4.638,3.071 6.392,5.202c1.755,2.13 3.113,4.553 4.074,7.269c0.961,2.716 1.441,5.494 1.441,8.335c0,4.177 -1.065,8.167 -3.196,11.969c-2.131,3.802 -5.327,6.664 -9.588,8.585c5.097,1.504 9.128,4.115 12.095,7.834c2.966,3.718 4.449,8.71 4.449,14.977ZM154.936,77.003c0,-2.173 -0.585,-3.99 -1.755,-5.452c-1.169,-1.463 -2.673,-2.194 -4.512,-2.194l-20.178,0l0,14.915l19.301,0c2.005,0 3.697,-0.627 5.076,-1.88c1.379,-1.253 2.068,-3.05 2.068,-5.389ZM128.491,36.645l0,13.662l16.669,0c1.671,0 3.196,-0.46 4.575,-1.379c1.378,-0.919 2.068,-2.757 2.068,-5.515c0,-2.423 -0.585,-4.157 -1.755,-5.201c-1.17,-1.044 -2.548,-1.567 -4.136,-1.567l-17.421,0Z" style="fill:#fff;fill-rule:nonzero;"/><path d="M190.531,104.827l0,-88.987l34.216,0c7.353,0 13.828,1.17 19.426,3.509c5.599,2.34 10.278,5.515 14.038,9.526c3.76,4.01 6.601,8.71 8.522,14.1c1.922,5.389 2.883,11.133 2.883,17.233c0,6.768 -1.065,12.888 -3.196,18.361c-2.131,5.473 -5.16,10.152 -9.087,14.038c-3.927,3.885 -8.648,6.893 -14.162,9.024c-5.515,2.13 -11.656,3.196 -18.424,3.196l-34.216,0ZM244.8,60.208c0,-3.426 -0.46,-6.559 -1.379,-9.4c-0.919,-2.841 -2.235,-5.264 -3.948,-7.269c-1.713,-2.006 -3.822,-3.572 -6.329,-4.7c-2.507,-1.128 -5.306,-1.692 -8.397,-1.692l-9.776,0l0,46.373l9.776,0c3.175,0 6.016,-0.585 8.522,-1.755c2.507,-1.169 4.617,-2.799 6.33,-4.888c1.713,-2.089 3.008,-4.553 3.885,-7.394c0.877,-2.841 1.316,-5.933 1.316,-9.275Z" style="fill:#fff;fill-rule:nonzero;"/><path d="M275.381,59.581c0,-5.431 1.024,-10.778 3.071,-16.042c2.047,-5.264 5.034,-9.985 8.961,-14.163c3.927,-4.178 8.69,-7.562 14.288,-10.152c5.599,-2.59 11.991,-3.885 19.176,-3.885c8.607,0 16.064,1.775 22.372,5.326c6.309,3.551 11.009,8.251 14.1,14.1l-18.674,13.286c-0.836,-2.173 -1.943,-3.969 -3.322,-5.39c-1.378,-1.42 -2.903,-2.548 -4.574,-3.384c-1.671,-0.835 -3.405,-1.42 -5.202,-1.754c-1.796,-0.335 -3.53,-0.502 -5.201,-0.502c-3.509,0 -6.538,0.69 -9.087,2.068c-2.548,1.379 -4.637,3.175 -6.266,5.39c-1.63,2.214 -2.841,4.721 -3.635,7.52c-0.794,2.799 -1.191,5.577 -1.191,8.334c0,3.092 0.46,6.058 1.379,8.899c0.919,2.841 2.256,5.348 4.011,7.52c1.754,2.172 3.906,3.906 6.454,5.201c2.549,1.295 5.411,1.943 8.586,1.943c1.671,0 3.384,-0.188 5.138,-0.564c1.755,-0.376 3.447,-1.003 5.076,-1.88c1.63,-0.877 3.092,-2.005 4.387,-3.384c1.295,-1.379 2.319,-3.071 3.071,-5.076l19.928,11.907c-1.337,3.258 -3.363,6.183 -6.079,8.773c-2.716,2.59 -5.807,4.763 -9.275,6.517c-3.467,1.755 -7.185,3.092 -11.154,4.011c-3.969,0.919 -7.834,1.379 -11.594,1.379c-6.601,0 -12.637,-1.316 -18.11,-3.948c-5.473,-2.632 -10.194,-6.121 -14.163,-10.466c-3.969,-4.345 -7.04,-9.274 -9.212,-14.789c-2.172,-5.515 -3.259,-11.113 -3.259,-16.795Z" style="fill:#fff;fill-rule:nonzero;"/></svg>